<svg width="18" height="24" viewBox="0 0 18 24" fill="none" xmlns="http://www.w3.org/2000/svg">
<path d="M9 9.85156C9.23731 9.85156 9.42969 9.65918 9.42969 9.42188C9.42969 9.18457 9.23731 8.99219 9 8.99219C8.76269 8.99219 8.57031 9.18457 8.57031 9.42188C8.57031 9.65918 8.76269 9.85156 9 9.85156Z" fill="#505050" stroke="#505050" stroke-width="0.3"/>
<path d="M5.77735 13.7187H12.2227C12.4599 13.7187 12.6524 13.5263 12.6524 13.289V9.25117L13.2321 9.74815C13.413 9.90322 13.6842 9.88092 13.838 9.70149C13.9924 9.52132 13.9715 9.25006 13.7913 9.09558L9.27965 5.22845C9.11877 5.09052 8.88129 5.09052 8.72037 5.22845L4.20869 9.09558C4.02848 9.25001 4.0076 9.52127 4.16203 9.70149C4.31641 9.8817 4.58772 9.90254 4.76789 9.74815L5.34766 9.25117V13.289C5.34766 13.5263 5.54008 13.7187 5.77735 13.7187V13.7187ZM6.20704 8.51456L9.00001 6.12061L11.793 8.51456V12.8593H9.4297V11.1406C9.4297 10.9033 9.23728 10.7109 9.00001 10.7109C8.76274 10.7109 8.57032 10.9033 8.57032 11.1406V12.8593H6.20704V8.51456Z" fill="#505050" stroke="#505050" stroke-width="0.3"/>
<path d="M8.69123 22.8691C8.77218 22.9528 8.8836 23 9 23C9.1164 23 9.22782 22.9528 9.30877 22.8691C12.0512 20.0384 17.1641 13.6702 17.1641 9.42188C17.1641 7.92244 16.7564 6.43598 15.9851 5.1232C15.8648 4.91858 15.6015 4.85017 15.3969 4.97036C15.1923 5.09058 15.1239 5.35389 15.2441 5.55851C15.9379 6.73946 16.3047 8.07541 16.3047 9.42188C16.3047 13.769 10.4271 20.3973 9 21.9423C7.57288 20.3973 1.69531 13.769 1.69531 9.42188C1.69531 5.32257 5.04047 1.85938 9 1.85938C10.3053 1.85938 11.5923 2.23496 12.722 2.94558C12.9227 3.07195 13.1881 3.01154 13.3144 2.81066C13.4408 2.60978 13.3804 2.34449 13.1795 2.21816C11.9126 1.42122 10.4674 1 9 1C4.42159 1 0.835938 4.98578 0.835938 9.42188C0.835938 13.6658 5.94028 20.0296 8.69123 22.8691V22.8691Z" fill="#505050" stroke="#505050" stroke-width="0.3"/>
<path d="M14.457 4.22266C14.6943 4.22266 14.8867 4.03028 14.8867 3.79297C14.8867 3.55566 14.6943 3.36328 14.457 3.36328C14.2197 3.36328 14.0273 3.55566 14.0273 3.79297C14.0273 4.03028 14.2197 4.22266 14.457 4.22266Z" fill="#505050" stroke="#505050" stroke-width="0.3"/>
</svg>
